<?xml version="1.0" encoding="UTF-8"?>
<svg id="Layer_1" xmlns="http://www.w3.org/2000/svg" version="1.1" viewBox="0 0 20 20">
  <!-- Generator: Adobe Illustrator 29.2.1, SVG Export Plug-In . SVG Version: 2.1.0 Build 116)  -->
  <defs>
    <style>
      .st0 {
        fill: #d80027;
      }

      .st1 {
        fill: #ffda44;
      }
    </style>
  </defs>
  <circle class="st0" cx="10.03" cy="10.07" r="10"/>
  <g>
    <polygon class="st1" points="6.32 11.54 4.22 13.07 5.02 10.6 2.92 9.07 5.52 9.07 6.32 6.6 7.13 9.07 9.73 9.07 7.62 10.6 8.43 13.07 6.32 11.54"/>
    <g>
      <polygon class="st1" points="15.67 12.76 14.76 13.42 15.11 12.36 14.2 11.7 15.32 11.7 15.67 10.63 16.02 11.7 17.14 11.7 16.23 12.36 16.58 13.42 15.67 12.76"/>
      <polygon class="st1" points="15.67 8.86 14.76 9.52 15.11 8.45 14.2 7.79 15.32 7.79 15.67 6.72 16.02 7.79 17.14 7.79 16.23 8.45 16.58 9.52 15.67 8.86"/>
    </g>
    <g>
      <polygon class="st1" points="12.73 6.56 11.83 7.22 12.17 6.15 11.26 5.49 12.39 5.49 12.73 4.42 13.08 5.49 14.2 5.49 13.3 6.15 13.64 7.22 12.73 6.56"/>
      <polygon class="st1" points="12.73 15.06 11.83 15.72 12.17 14.65 11.26 13.99 12.39 13.99 12.73 12.93 13.08 13.99 14.2 13.99 13.3 14.65 13.64 15.72 12.73 15.06"/>
    </g>
  </g>
</svg>