<?xml version="1.0" encoding="UTF-8"?>
<svg id="Layer_1" xmlns="http://www.w3.org/2000/svg" version="1.1" viewBox="0 0 20 20">
  <!-- Generator: Adobe Illustrator 29.2.1, SVG Export Plug-In . SVG Version: 2.1.0 Build 116)  -->
  <defs>
    <style>
      .st0 {
        fill: #0052b4;
      }

      .st1 {
        fill: #d80027;
      }

      .st2 {
        fill: #f0f0f0;
      }
    </style>
  </defs>
  <circle class="st2" cx="9.98" cy="10" r="10"/>
  <g>
    <g>
      <path class="st0" d="M9.97,13.68c2.03.01,3.69-1.63,3.7-3.66l-7.36-.04c-.01,2.03,1.63,3.69,3.66,3.7Z"/>
      <path class="st1" d="M10.01,6.32c2.03.01,3.67,1.67,3.66,3.7l-7.36-.04c.01-2.03,1.67-3.67,3.7-3.66Z"/>
    </g>
    <g>
      <polygon points="5.78 3.29 6.27 3.75 3.47 6.71 3 6.25 5.78 3.29"/>
      <polygon points="6.52 4 7.01 4.46 4.21 7.41 3.73 6.96 6.52 4"/>
      <polygon points="7.27 4.7 7.76 5.16 4.96 8.12 4.48 7.66 7.27 4.7"/>
    </g>
    <g>
      <polygon points="7.84 14.85 7.35 15.31 4.56 12.34 5.04 11.89 7.84 14.85"/>
      <polygon points="6.34 16.24 5.85 16.7 3.07 13.73 3.55 13.28 6.34 16.24"/>
      <polygon points="7.1 15.54 6.61 16.01 5.32 14.65 5.82 14.19 7.1 15.54"/>
      <polygon points="5.59 13.93 5.09 14.4 3.81 13.04 4.3 12.58 5.59 13.93"/>
    </g>
    <g>
      <polygon points="16.22 6.95 15.73 7.41 12.94 4.45 13.43 4 16.22 6.95"/>
      <polygon points="13.96 6.04 13.47 6.51 12.19 5.15 12.68 4.68 13.96 6.04"/>
      <polygon points="15.48 7.65 14.99 8.12 13.71 6.76 14.2 6.29 15.48 7.65"/>
      <polygon points="15.45 4.64 14.95 5.1 13.67 3.75 14.17 3.28 15.45 4.64"/>
      <polygon points="16.97 6.25 16.48 6.71 15.2 5.36 15.69 4.89 16.97 6.25"/>
    </g>
    <g>
      <polygon points="14.86 11.89 15.35 12.36 14.07 13.72 13.57 13.25 14.86 11.89"/>
      <polygon points="15.59 12.6 16.08 13.06 14.8 14.42 14.31 13.95 15.59 12.6"/>
      <polygon points="16.35 13.3 16.85 13.77 15.56 15.12 15.07 14.66 16.35 13.3"/>
      <polygon points="14.83 14.9 15.32 15.37 14.04 16.73 13.55 16.26 14.83 14.9"/>
      <polygon points="14.08 14.21 14.57 14.68 13.29 16.04 12.8 15.57 14.08 14.21"/>
      <polygon points="13.33 13.51 13.83 13.98 12.55 15.33 12.05 14.86 13.33 13.51"/>
    </g>
  </g>
</svg>